Coordinates
version=1
nRows=38
nColumns=38
inDegrees=no

Units are S.I. units (second, meters, Newtons, ...)
If the header above contains a line with 'inDegrees', this indicates whether rotational values are in degrees (yes) or radians (no).

endheader
time	pelvis_tilt	pelvis_list	pelvis_rotation	pelvis_tx	pelvis_ty	pelvis_tz	hip_flexion_r	hip_adduction_r	hip_rotation_r	knee_angle_r	ankle_angle_r	subtalar_angle_r	mtp_angle_r	hip_flexion_l	hip_adduction_l	hip_rotation_l	knee_angle_l	ankle_angle_l	subtalar_angle_l	mtp_angle_l	lumbar_extension	lumbar_bending	lumbar_rotation	arm_flex_r	arm_add_r	arm_rot_r	elbow_flex_r	pro_sup_r	wrist_flex_r	wrist_dev_r	arm_flex_l	arm_add_l	arm_rot_l	elbow_flex_l	pro_sup_l	wrist_flex_l	wrist_dev_l
0.44	0.188925	1.48159	1.34441	0.607362	1.05196	1.03593	0.0376651	0.117417	0.135908	0.250492	0.0984433	0	0	0.582858	-0.223718	-0.333543	1.05347	0.0821648	0	0	0.0669486	0.113321	0.130793	0.16883	-0.478318	0.788819	0.5865	1.00003	0	0	-0.102412	-0.201821	0.699887	0.29792	1.30283	0	0
0.45	0.162965	1.4821	1.36327	0.608148	1.06284	1.03507	0.0226291	0.113967	0.137979	0.243788	0.100253	0	0	0.585948	-0.225186	-0.354906	1.01051	0.0875703	0	0	0.0674283	0.108659	0.136089	0.182648	-0.482941	0.784611	0.597764	1.00466	0	0	-0.10737	-0.197992	0.699324	0.292393	1.30198	0	0
0.46	0.14151	1.4816	1.37816	0.608879	1.07365	1.03397	0.00889186	0.110836	0.140927	0.237581	0.102547	0	0	0.589166	-0.225665	-0.374132	0.965943	0.0923545	0	0	0.0686112	0.104571	0.140885	0.195245	-0.487432	0.778328	0.609766	1.00704	0	0	-0.111793	-0.19408	0.698525	0.28653	1.30102	0	0
0.47	0.128071	1.47891	1.38583	0.609536	1.08438	1.03252	-0.00197667	0.108574	0.143752	0.232568	0.104712	0	0	0.59504	-0.225077	-0.387029	0.921648	0.0966473	0	0	0.0721028	0.10156	0.144618	0.207495	-0.491532	0.772828	0.621051	1.00791	0	0	-0.116291	-0.190389	0.697541	0.281197	1.29985	0	0
0.48	0.114518	1.47464	1.39372	0.610143	1.09519	1.0308	-0.0109519	0.106229	0.146697	0.228166	0.107571	0	0	0.60183	-0.223062	-0.394447	0.875068	0.100628	0	0	0.0775914	0.0988707	0.14816	0.21795	-0.495134	0.765436	0.63283	1.00703	0	0	-0.120571	-0.186379	0.696393	0.274979	1.29826	0	0
0.49	0.0401924	1.44861	1.46821	0.610266	1.10447	1.02771	0.0107925	0.0997498	0.151634	0.23647	0.119116	0	0	0.619019	-0.163717	-0.274708	0.76981	0.128375	0	0	0.105432	0.0893868	0.151224	0.220328	-0.494044	0.741161	0.641382	1.00645	0	0	-0.119759	-0.181373	0.699632	0.259682	1.29884	0	0
0.5	0.0277982	1.43624	1.47524	0.610776	1.11498	1.02516	0.0135582	0.0979014	0.15474	0.239954	0.127145	0	0	0.627508	-0.150511	-0.240923	0.705597	0.13613	0	0	0.120185	0.086751	0.154912	0.226729	-0.495759	0.72963	0.652688	1.00715	0	0	-0.123884	-0.177825	0.702036	0.252127	1.30053	0	0
0.51	0.0328184	1.4297	1.46311	0.61137	1.12597	1.02282	0.00884253	0.0977866	0.155742	0.241977	0.133065	0	0	0.634592	-0.151977	-0.236536	0.661514	0.139407	0	0	0.12916	0.0871757	0.158604	0.234078	-0.499189	0.722848	0.666534	1.00685	0	0	-0.128832	-0.174201	0.70162	0.247088	1.29941	0	0
0.52	0.0412015	1.42538	1.44683	0.611983	1.13714	1.02057	0.00189753	0.0976728	0.156075	0.244025	0.138129	0	0	0.64061	-0.155991	-0.237903	0.62711	0.143311	0	0	0.135724	0.0882759	0.163015	0.24099	-0.503038	0.717179	0.681304	1.00636	0	0	-0.133372	-0.170794	0.702612	0.242296	1.29963	0	0
0.53	0.0465946	1.42227	1.43282	0.612605	1.14853	1.01843	-0.00605908	0.0966583	0.156446	0.246767	0.142934	0	0	0.644322	-0.159465	-0.240446	0.596729	0.150366	0	0	0.140974	0.0891817	0.168776	0.245763	-0.507517	0.71022	0.698299	1.00555	0	0	-0.136876	-0.167433	0.703134	0.23731	1.2987	0	0
0.54	0.0475833	1.42082	1.42274	0.61323	1.16012	1.01642	-0.0152535	0.0946227	0.156005	0.250797	0.14816	0	0	0.645351	-0.1619	-0.243332	0.571105	0.161708	0	0	0.144115	0.0892551	0.176106	0.247896	-0.512649	0.700418	0.717854	1.00501	0	0	-0.139246	-0.164421	0.704466	0.232414	1.29747	0	0
0.55	0.0431338	1.42103	1.41775	0.613874	1.17192	1.01459	-0.0255898	0.0913979	0.154707	0.255961	0.152983	0	0	0.64356	-0.163274	-0.247678	0.550069	0.175093	0	0	0.145638	0.0881354	0.184044	0.249267	-0.517408	0.690846	0.737071	1.00629	0	0	-0.141163	-0.162143	0.706796	0.227989	1.29674	0	0
0.56	0.029558	1.42319	1.42135	0.614536	1.18389	1.01298	-0.0369758	0.0862607	0.153168	0.263306	0.157951	0	0	0.638373	-0.163223	-0.253422	0.531525	0.189593	0	0	0.144747	0.0850719	0.19369	0.2482	-0.522191	0.678471	0.757603	1.00869	0	0	-0.141783	-0.160777	0.711348	0.223548	1.29752	0	0
0.57	0.0106434	1.42621	1.43052	0.615195	1.19596	1.01152	-0.0485459	0.0801595	0.151994	0.271323	0.161897	0	0	0.632395	-0.16252	-0.259476	0.517691	0.199621	0	0	0.143091	0.0806748	0.202969	0.246709	-0.525136	0.665679	0.775847	1.0118	0	0	-0.141964	-0.160162	0.716054	0.219617	1.2985	0	0
0.58	-0.014203	1.4299	1.44599	0.615839	1.20816	1.01022	-0.0597857	0.0730574	0.150415	0.281464	0.165209	0	0	0.625463	-0.160977	-0.266307	0.507677	0.205033	0	0	0.140884	0.0748454	0.211898	0.244435	-0.526415	0.652626	0.791976	1.01571	0	0	-0.141872	-0.160367	0.722205	0.215688	1.30149	0	0
0.59	-0.0429324	1.4339	1.4666	0.616315	1.22061	1.00909	-0.0705381	0.0651438	0.146958	0.293778	0.16785	0	0	0.61848	-0.158309	-0.273063	0.502848	0.206158	0	0	0.138603	0.0681294	0.219833	0.240481	-0.526699	0.638959	0.806772	1.02025	0	0	-0.141432	-0.160967	0.72739	0.211817	1.30373	0	0
0.6	-0.0746736	1.43836	1.49163	0.616558	1.23329	1.00814	-0.0808619	0.0564106	0.141314	0.308001	0.169275	0	0	0.611216	-0.154327	-0.279322	0.50326	0.20403	0	0	0.135665	0.0607599	0.227249	0.233742	-0.526645	0.622716	0.821674	1.02607	0	0	-0.140107	-0.161704	0.732583	0.207683	1.30516	0	0
0.61	-0.107187	1.44195	1.51848	0.616608	1.2462	1.00725	-0.0900087	0.047487	0.135979	0.322889	0.168836	0	0	0.604926	-0.149489	-0.283522	0.508517	0.200294	0	0	0.134229	0.0536341	0.233296	0.225763	-0.525772	0.60748	0.834867	1.03262	0	0	-0.139149	-0.162476	0.736732	0.203444	1.30519	0	0
0.62	-0.14016	1.44432	1.54642	0.616486	1.25933	1.00636	-0.0970968	0.0383164	0.130399	0.339703	0.166886	0	0	0.599659	-0.143969	-0.285217	0.517438	0.195769	0	0	0.134562	0.0470198	0.238561	0.216076	-0.524735	0.593305	0.847269	1.03974	0	0	-0.138586	-0.163306	0.739518	0.199668	1.3032	0	0
0.63	-0.169167	1.44533	1.57087	0.616296	1.27275	1.00543	-0.10098	0.0293883	0.123679	0.359877	0.162894	0	0	0.595258	-0.138513	-0.283309	0.528901	0.190371	0	0	0.137136	0.0412186	0.24305	0.204933	-0.523313	0.580975	0.858402	1.0468	0	0	-0.1389	-0.164495	0.742355	0.196134	1.30086	0	0
0.64	-0.193315	1.44447	1.59022	0.616093	1.28647	1.00438	-0.101215	0.0207576	0.117969	0.382975	0.156728	0	0	0.591736	-0.133247	-0.277595	0.541399	0.184113	0	0	0.142625	0.0363627	0.247638	0.191971	-0.52168	0.570122	0.868545	1.05331	0	0	-0.140187	-0.166062	0.745236	0.192915	1.2983	0	0
0.65	-0.212874	1.44126	1.60413	0.615927	1.30046	1.00317	-0.0970837	0.0123434	0.114648	0.410111	0.148809	0	0	0.589177	-0.128147	-0.269094	0.553211	0.176623	0	0	0.151324	0.0324561	0.253356	0.176133	-0.519761	0.558343	0.878525	1.06055	0	0	-0.142047	-0.167906	0.747998	0.190203	1.29301	0	0
0.66	-0.236717	1.43783	1.6219	0.615772	1.31471	1.0021	-0.090984	0.00307349	0.113086	0.44049	0.139522	0	0	0.584885	-0.122386	-0.263366	0.561127	0.167306	0	0	0.161056	0.0279879	0.25857	0.160596	-0.516478	0.549453	0.885316	1.0675	0	0	-0.144575	-0.170244	0.751552	0.187596	1.28692	0	0
0.67	-0.281608	1.43614	1.66116	0.61558	1.32909	1.00158	-0.0846073	-0.00916986	0.111439	0.474309	0.127456	0	0	0.577586	-0.115076	-0.268084	0.563892	0.153119	0	0	0.168695	0.0197049	0.262749	0.147583	-0.510953	0.54515	0.88687	1.0745	0	0	-0.146563	-0.173248	0.754948	0.184552	1.28043	0	0
0.68	-0.347613	1.43519	1.72266	0.615334	1.34335	1.00161	-0.0767079	-0.023728	0.111241	0.511934	0.111562	0	0	0.570722	-0.107517	-0.280616	0.566982	0.131693	0	0	0.174295	0.007036	0.265386	0.137534	-0.50268	0.544829	0.882637	1.08264	0	0	-0.147371	-0.177061	0.758069	0.181001	1.27385	0	0
0.69	-0.414115	1.43122	1.78644	0.614961	1.35728	1.00177	-0.0621773	-0.0379992	0.114169	0.554949	0.0903035	0	0	0.567521	-0.0998955	-0.283486	0.571427	0.104433	0	0	0.181893	-0.00738433	0.265869	0.128746	-0.492259	0.545948	0.874132	1.09272	0	0	-0.14771	-0.181476	0.761067	0.177548	1.26571	0	0
0.7	-0.468697	1.42484	1.84089	0.614341	1.37093	1.00195	-0.0411732	-0.0508707	0.117773	0.603279	0.0637859	0	0	0.566974	-0.0917204	-0.277178	0.577938	0.0843907	0	0	0.191011	-0.021371	0.263873	0.119343	-0.481561	0.54654	0.864485	1.10057	0	0	-0.147222	-0.185725	0.762668	0.174341	1.25574	0	0
0.71	-0.516445	1.41818	1.89033	0.613545	1.38428	1.00221	-0.0159517	-0.0631182	0.120248	0.656398	0.0307063	0	0	0.568405	-0.0841315	-0.274601	0.590285	0.0735948	0	0	0.19924	-0.0346144	0.26021	0.109612	-0.471833	0.547595	0.855099	1.10641	0	0	-0.145546	-0.190063	0.76588	0.171625	1.24586	0	0
0.72	-0.556774	1.41095	1.93523	0.612513	1.39744	1.00248	0.0129252	-0.0748309	0.119589	0.712623	-0.0111681	0	0	0.571835	-0.075704	-0.274349	0.606328	0.0661578	0	0	0.207414	-0.0472825	0.253869	0.0993804	-0.463121	0.54954	0.845661	1.11465	0	0	-0.143185	-0.194893	0.772194	0.169892	1.23445	0	0
0.73	-0.593695	1.40436	1.97841	0.611305	1.41032	1.0028	0.0435393	-0.0859796	0.117357	0.770481	-0.0566329	0	0	0.574363	-0.0661274	-0.275256	0.622701	0.0606046	0	0	0.213405	-0.0594033	0.246014	0.0884171	-0.45566	0.550552	0.837681	1.12182	0	0	-0.139346	-0.199961	0.780774	0.16906	1.22351	0	0
0.74	-0.626419	1.39829	2.01769	0.61002	1.42292	1.0031	0.0760401	-0.0961001	0.115203	0.829814	-0.102978	0	0	0.57525	-0.056666	-0.278645	0.638178	0.0564368	0	0	0.217504	-0.0703091	0.237505	0.0769613	-0.449886	0.551483	0.831758	1.12689	0	0	-0.13411	-0.205025	0.790578	0.169482	1.21245	0	0
0.75	-0.656203	1.39294	2.05362	0.608713	1.43522	1.00339	0.109904	-0.105177	0.113264	0.889908	-0.150413	0	0	0.572994	-0.0472127	-0.283957	0.650114	0.0545496	0	0	0.21958	-0.0799308	0.228828	0.0656504	-0.445747	0.553486	0.827197	1.1294	0	0	-0.127728	-0.210125	0.801458	0.171289	1.20184	0	0
0.76	-0.684597	1.38854	2.08774	0.607391	1.44722	1.00375	0.144331	-0.113553	0.111379	0.948637	-0.202129	0	0	0.566702	-0.0367008	-0.288771	0.656518	0.0553563	0	0	0.21941	-0.0886017	0.220108	0.0548502	-0.442646	0.556646	0.822885	1.13008	0	0	-0.119967	-0.215335	0.813558	0.174091	1.19313	0	0
0.77	-0.710781	1.38529	2.11958	0.606103	1.45899	1.00426	0.178223	-0.12087	0.109593	1.00334	-0.257509	0	0	0.557195	-0.0259084	-0.29281	0.65955	0.0587814	0	0	0.217096	-0.096257	0.211066	0.0447672	-0.440117	0.561045	0.818167	1.12837	0	0	-0.110768	-0.220615	0.826175	0.177437	1.1868	0	0
0.78	-0.739198	1.38384	2.15311	0.60495	1.47051	1.00502	0.210318	-0.127548	0.107787	1.05377	-0.306483	0	0	0.544294	-0.0154549	-0.298192	0.661366	0.0643561	0	0	0.21167	-0.103169	0.201766	0.0360965	-0.437187	0.566177	0.811948	1.12564	0	0	-0.100173	-0.22571	0.835843	0.181309	1.18198	0	0
0.79	-0.770458	1.38368	2.18894	0.603839	1.48182	1.00598	0.240489	-0.133869	0.106732	1.10014	-0.341358	0	0	0.528952	-0.00494371	-0.304706	0.66334	0.0727632	0	0	0.203983	-0.10945	0.192296	0.0288644	-0.434004	0.572761	0.804006	1.12177	0	0	-0.0887027	-0.230833	0.844623	0.185956	1.17845	0	0
0.8	-0.80621	1.38511	2.22885	0.602772	1.49293	1.00719	0.2681	-0.140006	0.10488	1.14339	-0.353125	0	0	0.510516	0.00567303	-0.311475	0.664694	0.0832324	0	0	0.193608	-0.115075	0.182678	0.0228806	-0.430628	0.580568	0.794566	1.11784	0	0	-0.0761489	-0.23592	0.852057	0.191044	1.17767	0	0
0.81	-0.842183	1.38812	2.26842	0.601897	1.50393	1.00862	0.293484	-0.144674	0.101995	1.18342	-0.34745	0	0	0.489834	0.014601	-0.318346	0.665627	0.0950105	0	0	0.181721	-0.119242	0.172979	0.0182166	-0.426825	0.59062	0.782999	1.1134	0	0	-0.063276	-0.241076	0.856956	0.196733	1.1769	0	0
